<svg
      xmlns="http://www.w3.org/2000/svg"
      width="100%"
      height="100%"
      viewBox="0 0 512 512"
    >
      <g >
        <path
          fill="#3ed1b0"
          d="M418.136 172.857l-9.676-1.05-6.5 9.321C361.6 239.02 321.1 296.781 281.009 354.8c-3.732 0-125.516-184.18-125.516-184.18-19.906-30.85-59.026-38.6-94.552-17.985-36.494 21.135-47 57.761-27.094 88.611 0 0 179.7 289.07 202.789 321.757 23.5 33.475 69.393 34.526 91.234 0l101.049-160.55 89.3-141.909c24.328-38.722-56.124-87.687-100.083-87.687z"
          transform="translate(-36.808 -111.419) translate(14.893 27.656)"
        ></path>
        <path
          fill="#113645"
          d="M445.688 224.505l-176.3-113.3a44.858 44.858 0 00-41.942-2.939c-13.421 6.146-21.95 18.3-21.95 31.665v226.464c0 13.361 8.528 25.652 21.95 31.665a45.428 45.428 0 0018.315 3.875 43.306 43.306 0 0023.627-6.814l176.3-113.3c10.486-6.68 16.637-17.369 16.637-28.725-.139-11.222-6.291-21.91-16.637-28.591z"
          transform="translate(-36.808 -111.419) translate(81.482 16)"
        ></path>
      </g>
    </svg>
